<svg version="1.1" id="Layer_1" xmlns="http://www.w3.org/2000/svg"
	xmlns:xlink="http://www.w3.org/1999/xlink" x="0px" y="0px"
	width="100%" viewBox="0 0 204 192" enable-background="new 0 0 204 192" xml:space="preserve">
<path fill="#FDFEFE" opacity="1.000000" stroke="none" 
	d="
M125.000000,193.000000 
	C83.359337,193.000000 42.218670,193.000000 1.039003,193.000000 
	C1.039003,129.066452 1.039003,65.132866 1.039003,1.099640 
	C68.890495,1.099640 136.781189,1.099640 204.835938,1.099640 
	C204.835938,64.999657 204.835938,128.999786 204.835938,193.000000 
	C178.466476,193.000000 151.983246,193.000000 125.000000,193.000000 
M147.231186,105.729889 
	C152.645386,97.784843 158.455765,90.075012 163.354675,81.824013 
	C167.657761,74.576530 168.912216,66.298889 168.438721,57.849586 
	C168.034698,50.639725 162.401764,45.666477 155.349365,46.628651 
	C152.427719,47.027260 149.299896,47.714417 146.809097,49.188374 
	C125.783257,61.630627 112.868866,79.896744 109.774132,104.206375 
	C108.056046,117.702141 117.246269,124.012856 129.647675,118.105476 
	C135.825897,115.162491 141.067596,110.253479 147.231186,105.729889 
M102.518280,11.968362 
	C98.377724,12.289452 94.176445,12.271497 90.108864,13.000037 
	C80.752991,14.675757 71.430397,16.676123 64.249886,23.667635 
	C58.635189,29.134542 58.657642,35.854252 64.437752,41.074211 
	C66.514221,42.949444 68.844810,44.762825 71.379250,45.876789 
	C92.426659,55.127766 113.626823,55.245480 134.598114,45.831703 
	C140.350464,43.249546 146.123901,39.468651 145.747833,31.934988 
	C145.373413,24.435038 139.515457,20.891478 133.541473,18.113787 
	C124.051353,13.701218 113.894096,12.094631 102.518280,11.968362 
M83.720551,71.840508 
	C80.782829,68.233398 78.062843,64.418495 74.861084,61.063347 
	C68.605881,54.508484 61.645260,48.826065 52.457832,46.931816 
	C44.278870,45.245487 38.501930,49.229145 37.731178,57.534046 
	C37.324322,61.917984 37.607025,66.589233 38.689747,70.848228 
	C42.700264,86.624001 51.382767,99.720116 63.784000,110.063606 
	C68.514969,114.009560 74.207649,117.359177 80.021896,119.323051 
	C89.439896,122.504150 95.729675,117.591682 96.157082,107.684685 
	C96.305801,104.237473 96.399208,100.453522 95.182678,97.346062 
	C91.874741,88.896317 87.852997,80.726013 83.720551,71.840508 
M123.840439,151.602631 
	C123.840485,150.603104 123.701538,149.580353 123.863884,148.607925 
	C124.705299,143.568085 122.094971,141.824753 117.525085,141.353973 
	C107.825294,140.354752 102.814621,146.686813 105.266518,157.090897 
	C106.467010,162.184937 109.817131,164.749435 115.006332,164.394867 
	C116.591522,164.286560 118.154427,163.852127 119.741974,163.564438 
	C120.112770,170.035507 118.117737,171.790894 112.329056,170.225418 
	C111.687752,170.051987 111.065521,169.621613 110.437965,169.628571 
	C109.551491,169.638382 108.668304,169.944809 107.783722,170.124451 
	C108.255157,171.042526 108.484566,172.340912 109.235954,172.819107 
	C115.837822,177.020645 123.145935,173.409500 123.736870,165.562103 
	C124.061249,161.254410 123.824051,156.904404 123.840439,151.602631 
M21.962343,141.538147 
	C21.962458,147.354187 21.907713,153.171173 22.006941,158.985535 
	C22.027893,160.213150 22.235088,161.796112 23.002924,162.590607 
	C26.399561,166.105194 36.855183,164.759613 39.112099,160.419022 
	C41.716194,155.410706 41.851051,149.977295 38.958733,145.146576 
	C36.218479,140.569855 31.556789,140.782700 26.936235,142.020447 
	C26.690763,142.086227 26.360519,141.835510 25.869188,141.660812 
	C25.634037,138.117126 25.393360,134.490158 25.152683,130.863190 
	C20.538404,133.491180 22.571138,137.329254 21.962343,141.538147 
M151.327255,142.648026 
	C146.989212,145.702988 147.082962,150.280746 147.354462,154.784012 
	C147.852707,163.048691 156.026459,167.558929 163.196915,163.507263 
	C164.159302,162.963440 164.535431,161.382095 165.683762,159.429977 
	C153.785324,162.541061 150.259201,160.881531 151.657913,153.410172 
	C155.370438,153.410172 159.163544,153.353958 162.954163,153.427338 
	C166.190231,153.489975 166.900421,152.017868 166.276169,149.024994 
	C164.882385,142.342758 160.011551,139.964462 151.327255,142.648026 
M59.668545,162.195145 
	C60.338039,161.258057 61.210945,160.406082 61.644348,159.370209 
	C64.686401,152.099457 62.203812,143.742523 56.527660,141.870743 
	C51.887470,140.340607 47.288380,141.658081 44.979935,145.178757 
	C42.319118,149.236847 42.775749,158.267899 45.816566,161.725128 
	C48.678440,164.978928 53.646248,165.347153 59.668545,162.195145 
M103.178734,147.790298 
	C103.305092,145.902512 103.431450,144.014725 103.557808,142.126938 
	C102.354698,143.636902 100.809792,144.987823 100.018044,146.689224 
	C98.246567,150.495941 96.850174,154.477188 95.301018,158.387360 
	C92.314438,153.551270 90.576263,148.756866 88.627510,144.049652 
	C88.288712,143.231293 87.060738,142.781052 86.243439,142.160797 
	C86.007782,143.141205 85.334129,144.270615 85.608620,145.077484 
	C87.211678,149.789642 88.271866,154.951950 91.009430,158.935532 
	C93.575508,162.669571 92.883224,165.387451 91.487244,168.837250 
	C90.877251,170.344696 91.044922,172.166840 90.859451,173.846069 
	C91.564323,173.975204 92.269196,174.104324 92.974068,174.233459 
	C96.317093,165.667938 99.660118,157.102432 103.178734,147.790298 
M183.792999,155.987976 
	C182.444778,151.829071 178.799393,151.145828 175.260315,150.017059 
	C173.992172,149.612595 173.142548,147.895859 172.101913,146.778061 
	C173.464844,146.141357 174.798599,145.068726 176.197876,144.975052 
	C178.070496,144.849716 179.993896,145.482925 182.410095,145.873627 
	C182.193359,144.631897 182.138992,143.074966 181.882782,143.041016 
	C178.565125,142.601364 175.117233,141.801834 171.926010,142.363846 
	C170.506622,142.613846 168.235764,146.333923 168.721161,147.403214 
	C169.803665,149.787964 172.356125,151.517288 174.362869,153.458649 
	C174.686554,153.771774 175.383911,153.683792 175.737823,153.983093 
	C177.227509,155.242889 178.652481,156.579269 180.101120,157.887634 
	C178.082047,158.928253 176.155365,160.452072 174.015533,160.861221 
	C172.204834,161.207428 170.147430,160.263336 167.239136,159.706406 
	C169.601379,165.386368 173.489227,164.390869 176.881577,164.134491 
	C181.307846,163.799957 183.866928,161.377472 183.792999,155.987976 
M69.191185,158.017609 
	C68.626831,152.659698 68.062485,147.301804 67.498131,141.943893 
	C66.782860,141.952484 66.067589,141.961075 65.352318,141.969666 
	C65.195396,145.572281 64.883720,149.176086 64.911583,152.777283 
	C64.984680,162.223511 69.142181,165.555908 78.575256,164.272980 
	C81.600632,163.861526 83.070152,162.727692 82.986862,159.558594 
	C82.864426,154.899719 83.065872,150.230927 82.884140,145.575943 
	C82.833260,144.272919 81.921066,143.003510 81.403969,141.718689 
	C80.884895,141.798737 80.365822,141.878784 79.846756,141.958832 
	C79.642708,143.475937 79.300926,144.989563 79.262436,146.510849 
	C79.174026,150.005203 79.039551,153.517044 79.286888,156.995972 
	C79.536987,160.513824 77.655952,161.601273 74.790207,161.125931 
	C72.967926,160.823685 71.300529,159.587631 69.191185,158.017609 
M134.074554,160.977386 
	C132.740143,158.912827 130.781982,157.001236 130.228760,154.745102 
	C129.533188,151.908524 130.114700,148.780365 129.887726,145.797592 
	C129.785095,144.448868 129.061356,143.147400 128.619385,141.824493 
	C128.008820,141.906509 127.398254,141.988525 126.787682,142.070541 
	C126.787682,146.743271 126.499138,151.438309 126.858459,156.083237 
	C127.341164,162.323135 131.012451,164.875427 138.031631,164.445435 
	C144.070923,164.075439 144.195908,163.904175 144.196457,155.996216 
	C144.196640,153.497620 144.264572,150.996597 144.175888,148.501160 
	C144.099136,146.341400 143.844452,144.187973 143.668411,142.031738 
	C143.113983,141.982666 142.559555,141.933594 142.005127,141.884521 
	C141.640900,143.089691 141.020325,144.282684 140.962433,145.502380 
	C140.812531,148.660202 140.658936,151.854675 140.968750,154.988846 
	C141.432922,159.684387 139.910721,162.019699 134.074554,160.977386 
z"/>
<path fill="#EA5C11" opacity="1.000000" stroke="none" 
	d="
M146.982056,105.981842 
	C141.067596,110.253479 135.825897,115.162491 129.647675,118.105476 
	C117.246269,124.012856 108.056046,117.702141 109.774132,104.206375 
	C112.868866,79.896744 125.783257,61.630627 146.809097,49.188374 
	C149.299896,47.714417 152.427719,47.027260 155.349365,46.628651 
	C162.401764,45.666477 168.034698,50.639725 168.438721,57.849586 
	C168.912216,66.298889 167.657761,74.576530 163.354675,81.824013 
	C158.455765,90.075012 152.645386,97.784843 146.982056,105.981842 
z"/>
<path fill="#039DCC" opacity="1.000000" stroke="none" 
	d="
M102.998863,11.968358 
	C113.894096,12.094631 124.051353,13.701218 133.541473,18.113787 
	C139.515457,20.891478 145.373413,24.435038 145.747833,31.934988 
	C146.123901,39.468651 140.350464,43.249546 134.598114,45.831703 
	C113.626823,55.245480 92.426659,55.127766 71.379250,45.876789 
	C68.844810,44.762825 66.514221,42.949444 64.437752,41.074211 
	C58.657642,35.854252 58.635189,29.134542 64.249886,23.667635 
	C71.430397,16.676123 80.752991,14.675757 90.108864,13.000037 
	C94.176445,12.271497 98.377724,12.289452 102.998863,11.968358 
z"/>
<path fill="#0356A4" opacity="1.000000" stroke="none" 
	d="
M83.917358,72.142731 
	C87.852997,80.726013 91.874741,88.896317 95.182678,97.346062 
	C96.399208,100.453522 96.305801,104.237473 96.157082,107.684685 
	C95.729675,117.591682 89.439896,122.504150 80.021896,119.323051 
	C74.207649,117.359177 68.514969,114.009560 63.784000,110.063606 
	C51.382767,99.720116 42.700264,86.624001 38.689747,70.848228 
	C37.607025,66.589233 37.324322,61.917984 37.731178,57.534046 
	C38.501930,49.229145 44.278870,45.245487 52.457832,46.931816 
	C61.645260,48.826065 68.605881,54.508484 74.861084,61.063347 
	C78.062843,64.418495 80.782829,68.233398 83.917358,72.142731 
z"/>
<path fill="#1CA1CE" opacity="1.000000" stroke="none" 
	d="
M123.840256,152.088058 
	C123.824051,156.904404 124.061249,161.254410 123.736870,165.562103 
	C123.145935,173.409500 115.837822,177.020645 109.235954,172.819107 
	C108.484566,172.340912 108.255157,171.042526 107.783722,170.124451 
	C108.668304,169.944809 109.551491,169.638382 110.437965,169.628571 
	C111.065521,169.621613 111.687752,170.051987 112.329056,170.225418 
	C118.117737,171.790894 120.112770,170.035507 119.741974,163.564438 
	C118.154427,163.852127 116.591522,164.286560 115.006332,164.394867 
	C109.817131,164.749435 106.467010,162.184937 105.266518,157.090897 
	C102.814621,146.686813 107.825294,140.354752 117.525085,141.353973 
	C122.094971,141.824753 124.705299,143.568085 123.863884,148.607925 
	C123.701538,149.580353 123.840485,150.603104 123.840256,152.088058 
M108.914551,157.307083 
	C110.316216,160.988831 113.228706,161.583496 116.606628,160.902710 
	C120.411308,160.135941 120.103485,157.078400 120.084511,154.233109 
	C120.071266,152.247543 120.273499,150.234421 120.000153,148.286850 
	C119.844536,147.178024 119.186653,145.644470 118.308525,145.215057 
	C113.658638,142.941147 109.177994,145.448090 108.570427,150.606140 
	C108.341682,152.548065 108.646378,154.552811 108.914551,157.307083 
z"/>
<path fill="#17A0CD" opacity="1.000000" stroke="none" 
	d="
M21.962257,141.047653 
	C22.571138,137.329254 20.538404,133.491180 25.152683,130.863190 
	C25.393360,134.490158 25.634037,138.117126 25.869188,141.660812 
	C26.360519,141.835510 26.690763,142.086227 26.936235,142.020447 
	C31.556789,140.782700 36.218479,140.569855 38.958733,145.146576 
	C41.851051,149.977295 41.716194,155.410706 39.112099,160.419022 
	C36.855183,164.759613 26.399561,166.105194 23.002924,162.590607 
	C22.235088,161.796112 22.027893,160.213150 22.006941,158.985535 
	C21.907713,153.171173 21.962458,147.354187 21.962257,141.047653 
M25.655739,158.170410 
	C26.464855,159.052567 27.117479,160.418365 28.108301,160.738983 
	C34.889935,162.933395 38.706871,157.908249 36.986214,149.378754 
	C36.235672,145.658234 33.835976,144.563690 30.469538,144.723404 
	C26.979790,144.888977 25.426264,146.755234 25.608692,150.250397 
	C25.730026,152.575012 25.632927,154.911026 25.655739,158.170410 
z"/>
<path fill="#149FCD" opacity="1.000000" stroke="none" 
	d="
M151.663651,142.462738 
	C160.011551,139.964462 164.882385,142.342758 166.276169,149.024994 
	C166.900421,152.017868 166.190231,153.489975 162.954163,153.427338 
	C159.163544,153.353958 155.370438,153.410172 151.657913,153.410172 
	C150.259201,160.881531 153.785324,162.541061 165.683762,159.429977 
	C164.535431,161.382095 164.159302,162.963440 163.196915,163.507263 
	C156.026459,167.558929 147.852707,163.048691 147.354462,154.784012 
	C147.082962,150.280746 146.989212,145.702988 151.663651,142.462738 
M158.015945,144.566986 
	C154.156128,144.353256 151.385818,145.492264 150.975693,150.162476 
	C155.088547,150.162476 158.863892,150.162476 162.639236,150.162476 
	C162.866867,149.748291 163.094498,149.334091 163.322128,148.919907 
	C161.791992,147.540833 160.261856,146.161758 158.015945,144.566986 
z"/>
<path fill="#1AA1CE" opacity="1.000000" stroke="none" 
	d="
M59.387115,162.452637 
	C53.646248,165.347153 48.678440,164.978928 45.816566,161.725128 
	C42.775749,158.267899 42.319118,149.236847 44.979935,145.178757 
	C47.288380,141.658081 51.887470,140.340607 56.527660,141.870743 
	C62.203812,143.742523 64.686401,152.099457 61.644348,159.370209 
	C61.210945,160.406082 60.338039,161.258057 59.387115,162.452637 
M57.823627,146.793213 
	C53.026047,143.381592 48.225334,144.263916 47.232086,148.957199 
	C46.731609,151.322021 46.336521,154.251526 47.305618,156.236343 
	C48.326439,158.327072 51.036877,160.874069 52.998184,160.865005 
	C54.969913,160.855881 57.939411,158.285889 58.636028,156.219315 
	C59.503502,153.645889 58.490547,150.438599 57.823627,146.793213 
z"/>
<path fill="#17A0CE" opacity="1.000000" stroke="none" 
	d="
M103.090942,148.163605 
	C99.660118,157.102432 96.317093,165.667938 92.974068,174.233459 
	C92.269196,174.104324 91.564323,173.975204 90.859451,173.846069 
	C91.044922,172.166840 90.877251,170.344696 91.487244,168.837250 
	C92.883224,165.387451 93.575508,162.669571 91.009430,158.935532 
	C88.271866,154.951950 87.211678,149.789642 85.608620,145.077484 
	C85.334129,144.270615 86.007782,143.141205 86.243439,142.160797 
	C87.060738,142.781052 88.288712,143.231293 88.627510,144.049652 
	C90.576263,148.756866 92.314438,153.551270 95.301018,158.387360 
	C96.850174,154.477188 98.246567,150.495941 100.018044,146.689224 
	C100.809792,144.987823 102.354698,143.636902 103.557800,142.126938 
	C103.431450,144.014725 103.305092,145.902512 103.090942,148.163605 
z"/>
<path fill="#17A0CD" opacity="1.000000" stroke="none" 
	d="
M183.872162,156.364258 
	C183.866928,161.377472 181.307846,163.799957 176.881577,164.134491 
	C173.489227,164.390869 169.601379,165.386368 167.239136,159.706406 
	C170.147430,160.263336 172.204834,161.207428 174.015533,160.861221 
	C176.155365,160.452072 178.082047,158.928253 180.101120,157.887634 
	C178.652481,156.579269 177.227509,155.242889 175.737823,153.983093 
	C175.383911,153.683792 174.686554,153.771774 174.362869,153.458649 
	C172.356125,151.517288 169.803665,149.787964 168.721161,147.403214 
	C168.235764,146.333923 170.506622,142.613846 171.926010,142.363846 
	C175.117233,141.801834 178.565125,142.601364 181.882782,143.041016 
	C182.138992,143.074966 182.193359,144.631897 182.410095,145.873627 
	C179.993896,145.482925 178.070496,144.849716 176.197876,144.975052 
	C174.798599,145.068726 173.464844,146.141357 172.101913,146.778061 
	C173.142548,147.895859 173.992172,149.612595 175.260315,150.017059 
	C178.799393,151.145828 182.444778,151.829071 183.872162,156.364258 
z"/>
<path fill="#19A1CE" opacity="1.000000" stroke="none" 
	d="
M69.377434,158.393951 
	C71.300529,159.587631 72.967926,160.823685 74.790207,161.125931 
	C77.655952,161.601273 79.536987,160.513824 79.286888,156.995972 
	C79.039551,153.517044 79.174026,150.005203 79.262436,146.510849 
	C79.300926,144.989563 79.642708,143.475937 79.846756,141.958832 
	C80.365822,141.878784 80.884895,141.798737 81.403969,141.718689 
	C81.921066,143.003510 82.833260,144.272919 82.884140,145.575943 
	C83.065872,150.230927 82.864426,154.899719 82.986862,159.558594 
	C83.070152,162.727692 81.600632,163.861526 78.575256,164.272980 
	C69.142181,165.555908 64.984680,162.223511 64.911583,152.777283 
	C64.883720,149.176086 65.195396,145.572281 65.352318,141.969666 
	C66.067589,141.961075 66.782860,141.952484 67.498131,141.943893 
	C68.062485,147.301804 68.626831,152.659698 69.377434,158.393951 
z"/>
<path fill="#169ECC" opacity="1.000000" stroke="none" 
	d="
M134.493591,161.062378 
	C139.910721,162.019699 141.432922,159.684387 140.968750,154.988846 
	C140.658936,151.854675 140.812531,148.660202 140.962433,145.502380 
	C141.020325,144.282684 141.640900,143.089691 142.005127,141.884521 
	C142.559555,141.933594 143.113983,141.982666 143.668411,142.031738 
	C143.844452,144.187973 144.099136,146.341400 144.175888,148.501160 
	C144.264572,150.996597 144.196640,153.497620 144.196457,155.996216 
	C144.195908,163.904175 144.070923,164.075439 138.031631,164.445435 
	C131.012451,164.875427 127.341164,162.323135 126.858459,156.083237 
	C126.499138,151.438309 126.787682,146.743271 126.787682,142.070541 
	C127.398254,141.988525 128.008820,141.906509 128.619385,141.824493 
	C129.061356,143.147400 129.785095,144.448868 129.887726,145.797592 
	C130.114700,148.780365 129.533188,151.908524 130.228760,154.745102 
	C130.781982,157.001236 132.740143,158.912827 134.493591,161.062378 
z"/>
<path fill="#F3F9FC" opacity="1.000000" stroke="none" 
	d="
M108.811218,156.917999 
	C108.646378,154.552811 108.341682,152.548065 108.570427,150.606140 
	C109.177994,145.448090 113.658638,142.941147 118.308525,145.215057 
	C119.186653,145.644470 119.844536,147.178024 120.000153,148.286850 
	C120.273499,150.234421 120.071266,152.247543 120.084511,154.233109 
	C120.103485,157.078400 120.411308,160.135941 116.606628,160.902710 
	C113.228706,161.583496 110.316216,160.988831 108.811218,156.917999 
z"/>
<path fill="#F7FBFD" opacity="1.000000" stroke="none" 
	d="
M25.644669,157.706177 
	C25.632927,154.911026 25.730026,152.575012 25.608692,150.250397 
	C25.426264,146.755234 26.979790,144.888977 30.469538,144.723404 
	C33.835976,144.563690 36.235672,145.658234 36.986214,149.378754 
	C38.706871,157.908249 34.889935,162.933395 28.108301,160.738983 
	C27.117479,160.418365 26.464855,159.052567 25.644669,157.706177 
z"/>
<path fill="#DEEFF6" opacity="1.000000" stroke="none" 
	d="
M158.373840,144.674835 
	C160.261856,146.161758 161.791992,147.540833 163.322128,148.919907 
	C163.094498,149.334091 162.866867,149.748291 162.639236,150.162476 
	C158.863892,150.162476 155.088547,150.162476 150.975693,150.162476 
	C151.385818,145.492264 154.156128,144.353256 158.373840,144.674835 
z"/>
<path fill="#F4FAFC" opacity="1.000000" stroke="none" 
	d="
M58.056622,147.149109 
	C58.490547,150.438599 59.503502,153.645889 58.636028,156.219315 
	C57.939411,158.285889 54.969913,160.855881 52.998184,160.865005 
	C51.036877,160.874069 48.326439,158.327072 47.305618,156.236343 
	C46.336521,154.251526 46.731609,151.322021 47.232086,148.957199 
	C48.225334,144.263916 53.026047,143.381592 58.056622,147.149109 
z"/>
</svg>